<svg xmlns="http://www.w3.org/2000/svg" width="50" height="45" fill="none">
    <path fill="#3077C6" d="M28.652 34.748c0-2.056.511-4.03 1.473-5.79a54.137 54.137 0 0 0-2.782-1.472.362.362 0 0 1-.205-.338v-8.08a3.776 3.776 0 0 0 1.688-3.141V7.549A7.55 7.55 0 0 0 21.276 0h-1.8a7.55 7.55 0 0 0-7.549 7.55v8.377c0 1.31.675 2.465 1.688 3.14v8.081a.38.38 0 0 1-.205.338c-1.155.562-6.75 3.386-11.937 7.651A4.04 4.04 0 0 0 0 38.277v5.739h32.979a10.52 10.52 0 0 1-.788-.726 12.01 12.01 0 0 1-3.54-8.542Z"/><path fill="#3077C6" d="M40.732 25.48c-5.114 0-9.267 4.154-9.267 9.268 0 5.115 4.153 9.268 9.267 9.268 5.115 0 9.268-4.153 9.268-9.268a9.266 9.266 0 0 0-9.268-9.267ZM46.154 36.1h-4.071v4.07h-2.7V36.1H35.31v-2.701h4.071v-4.071h2.7v4.071h4.072v2.7Z"/>
</svg>